<svg width="173" height="207" viewBox="0 0 173 207" fill="none" xmlns="http://www.w3.org/2000/svg">
<path d="M1.41605 111.151C6.59982 74.0003 42.336 36.0334 67.6734 10.6959C77.0108 1.35853 84.7721 -6.02384 84.7721 10.2209C84.7721 45.6577 62.549 84.3554 45.1127 113.763C36.2755 128.667 26.1588 144.043 12.2215 154.728C8.67523 157.447 1.22578 163.932 1.41605 155.56C1.63549 145.904 7.8914 137.143 13.0527 129.437C26.2287 109.763 41.4981 91.3863 56.2743 72.9161C68.7288 57.348 81.2814 42.0235 96.6462 29.2195C97.5084 28.5009 105.429 21.1809 106.027 25.0635C110.646 55.0863 95.2342 86.9382 86.7907 114.713C78.0495 143.467 49.7713 229.021 57.4617 199.969C60.2766 189.335 67.1443 179.521 72.423 170.046C80.9221 154.791 88.7055 139.594 99.2585 125.637C103.269 120.332 118.969 98.0167 118.969 116.731C118.969 131.43 114.932 146.189 114.932 160.547C114.932 165.504 118.794 151.38 121.344 147.129C124.747 141.457 129.659 131.76 136.068 128.724C141.946 125.94 140.236 142.193 140.343 144.873C140.5 148.809 160.167 144.624 164.803 145.467C171.949 146.766 164.707 158.157 169.197 159.953C170.565 160.5 172.403 152.351 172.403 162.447" stroke="#252525" stroke-linecap="round"/>
</svg>
