<svg width="146" height="146" viewBox="0 0 146 146" fill="none" xmlns="http://www.w3.org/2000/svg">
<path d="M73 0L79.9535 17.9575L91.1544 2.29343L93.4236 21.416L108.168 9.02961L105.61 28.1157L122.972 19.7853L115.748 37.6357L134.636 33.8846L123.2 49.3778L142.427 50.4418L127.497 62.6041L145.856 68.4163L128.371 76.4836L144.707 86.6788L125.765 90.1443L139.052 104.082L119.843 102.728L129.247 119.532L110.979 113.443L115.908 132.058L99.7277 121.617L99.8731 140.874L86.7973 126.737L82.1493 145.424L73 128.48L63.8507 145.424L59.2027 126.737L46.1269 140.874L46.2723 121.617L30.0917 132.058L35.0213 113.443L16.7525 119.532L26.1567 102.728L6.94762 104.082L20.2354 90.1443L1.29303 86.6788L17.6295 76.4836L0.144051 68.4163L18.5027 62.6041L3.57288 50.4418L22.8002 49.3778L11.3641 33.8846L30.2519 37.6357L23.0281 19.7853L40.3897 28.1157L37.832 9.02961L52.5765 21.416L54.8456 2.29343L66.0465 17.9575L73 0Z" fill="#FFEF7D"/>
</svg>
